<?xml version="1.0" encoding="utf-8"?>
<svg viewBox="0 0 500 500" xmlns="http://www.w3.org/2000/svg">
  <g transform="matrix(0.218898, 0, 0, -0.218898, -290.191895, 801.314697)" fill="#000000" stroke="none" style="">
    <path d="M2441 3538 c-17 -39 -29 -73 -27 -75 2 -3 7 5 11 16 9 30 81 30 90 1 3 -11 13 -20 20 -20 10 0 5 20 -18 75 -17 41 -34 75 -37 75 -4 0 -21 -32 -39 -72z m55 -25 c-2 -2 -15 -3 -28 -1 -24 3 -24 4 -10 38 l15 35 14 -34 c8 -18 12 -35 9 -38z"/>
    <path d="M2203 3583 c-13 -2 -23 -5 -23 -6 35 -147 37 -152 61 -148 90 13 124 92 61 141 -24 19 -50 22 -99 13z m86 -29 c27 -34 27 -68 0 -95 -32 -32 -51 -21 -66 40 -8 30 -12 60 -9 67 9 23 53 16 75 -12z"/>
    <path d="M2765 3513 c-3 -27 -9 -66 -12 -88 l-5 -40 42 40 41 40 -7 -55 -7 -55 59 55 c32 30 61 59 63 65 2 5 -20 -12 -49 -40 -51 -49 -52 -50 -46 -20 16 87 17 103 7 110 -7 4 -14 -5 -17 -24 -4 -16 -18 -40 -31 -53 l-25 -23 7 68 c8 78 -10 96 -20 20z"/>
    <path d="M2083 3476 c30 -54 31 -54 -60 -18 -29 12 -54 18 -57 14 -5 -8 66 -133 72 -127 3 2 -7 24 -22 49 -14 24 -26 47 -26 50 0 3 32 -8 71 -25 40 -16 74 -29 76 -29 6 0 -56 112 -70 125 -5 6 2 -12 16 -39z"/>
    <path d="M2976 3348 c-25 -29 -46 -55 -46 -58 0 -3 16 -18 35 -33 19 -15 35 -24 35 -19 0 6 -12 17 -26 27 l-26 17 23 24 c22 23 24 23 48 7 26 -16 26 -16 9 4 -22 24 -23 37 -3 53 13 11 20 9 38 -9 35 -32 45 -25 12 9 -16 17 -34 30 -41 30 -7 0 -33 -24 -58 -52z"/>
    <path d="M1828 3360 l-33 -29 57 -58 57 -57 31 29 c16 16 30 33 30 39 0 5 -13 -2 -28 -17 l-28 -27 -22 22 -22 22 22 23 c12 13 17 23 11 23 -6 0 -16 -7 -23 -15 -17 -20 -27 -19 -41 6 -9 17 -7 25 12 45 32 34 16 30 -23 -6z"/>
    <path d="M3112 3209 c-34 -22 -62 -42 -62 -45 0 -15 43 -64 61 -69 24 -8 49 10 49 35 0 13 6 17 18 13 30 -8 47 21 32 57 -21 51 -30 52 -98 9z m83 -19 c0 -31 -33 -40 -51 -15 -11 15 -12 13 -7 -18 7 -47 -18 -61 -50 -28 -19 19 -20 23 -7 31 8 5 31 20 50 34 43 31 65 29 65 -4z"/>
    <path d="M1715 3220 c13 -20 124 -90 130 -81 3 6 -21 28 -54 50 -58 39 -89 52 -76 31z"/>
    <path d="M1652 3113 c-24 -45 -40 -93 -31 -93 5 0 9 6 9 14 0 26 15 26 69 0 55 -25 81 -30 81 -16 0 5 -26 19 -57 32 -72 29 -80 35 -63 55 7 8 10 18 7 21 -3 3 -10 -3 -15 -13z"/>
    <path d="M2098 2843 l-208 -3 1 -58 c1 -31 4 -48 6 -37 11 44 33 55 105 55 l68 0 0 -280 c0 -267 -1 -281 -20 -300 l-20 -20 73 0 c39 0 67 4 60 8 -28 18 -33 70 -33 328 l0 264 64 0 c81 0 95 -6 112 -44 13 -31 13 -31 14 24 0 39 3 51 10 40 6 -9 10 -131 10 -292 0 -265 -1 -279 -20 -298 l-20 -20 83 0 c46 0 120 -3 163 -7 72 -6 78 -5 66 10 -12 14 -9 20 21 47 48 42 61 78 54 156 l-5 65 86 -3 86 -3 42 -110 c48 -123 52 -151 27 -158 -10 -3 18 -5 62 -5 44 0 72 2 62 5 -25 6 -33 25 -146 332 -56 150 -105 280 -110 288 -5 10 -18 -12 -41 -74 -18 -48 -46 -123 -62 -165 l-29 -77 -49 27 -48 27 34 28 c85 70 63 197 -41 237 -35 14 -172 18 -457 13z m446 -63 c43 -38 55 -93 32 -142 -21 -44 -48 -59 -118 -65 l-58 -6 0 122 0 121 55 0 c46 0 59 -4 89 -30z m261 -165 c16 -44 30 -86 33 -92 3 -10 -14 -13 -67 -13 -46 0 -71 4 -71 11 0 22 65 188 71 181 3 -4 18 -43 34 -87z m-271 -89 c36 -15 73 -57 82 -92 8 -32 -42 -161 -69 -175 -11 -7 -49 -14 -84 -17 l-63 -5 0 152 0 151 50 0 c28 0 65 -6 84 -14z"/>
    <path d="M1650 2261 c0 -58 46 -95 68 -55 8 14 12 14 30 3 30 -19 52 3 52 52 l0 39 -75 0 -75 0 0 -39z m68 -8 c-2 -22 -8 -28 -28 -28 -20 0 -26 6 -28 28 -3 24 0 27 28 27 28 0 31 -3 28 -27z m72 3 c0 -28 -26 -42 -46 -25 -8 6 -14 20 -14 30 0 14 7 19 30 19 25 0 30 -4 30 -24z"/>
    <path d="M3210 2284 c0 -11 5 -14 16 -10 9 3 42 6 75 6 33 0 59 4 59 10 0 6 -32 10 -75 10 -62 0 -75 -3 -75 -16z"/>
    <path d="M3211 2200 c0 -14 -3 -43 -6 -65 -3 -29 -2 -33 3 -15 7 23 12 25 58 22 27 -2 56 -4 64 -5 8 -1 17 3 20 8 3 6 -6 11 -20 13 -104 11 -109 12 -113 40 -4 27 -4 27 -6 2z"/>
    <path d="M1666 2098 c3 -4 14 -8 25 -8 13 0 19 -7 20 -22 1 -21 1 -22 7 -3 6 16 13 19 42 15 l34 -5 -29 -19 c-17 -11 -31 -19 -32 -18 -2 1 -12 -7 -23 -18 -19 -19 -27 -40 -15 -40 9 0 125 93 121 97 -8 8 -155 29 -150 21z"/>
    <path d="M3238 2013 c-38 -2 -68 -8 -68 -12 0 -5 28 -33 63 -62 34 -30 54 -44 43 -32 -24 28 -10 75 24 83 25 6 41 31 18 28 -7 -1 -43 -3 -80 -5z m25 -43 c-8 -31 -18 -32 -43 -5 l-23 25 35 0 c31 0 35 -3 31 -20z"/>
    <path d="M1810 1931 c-5 -11 -10 -33 -10 -49 0 -33 -24 -49 -46 -31 -12 9 -13 9 -8 -4 14 -37 74 -25 74 16 1 69 32 95 54 44 8 -18 15 -25 15 -17 1 24 -28 60 -49 60 -11 0 -24 -9 -30 -19z"/>
    <path d="M1731 1884 c0 -11 3 -14 6 -6 3 7 2 16 -1 19 -3 4 -6 -2 -5 -13z"/>
    <path d="M3107 1878 c-24 -37 -29 -66 -16 -90 29 -54 78 -63 121 -21 15 15 28 31 28 36 0 5 -9 -2 -21 -17 -25 -31 -57 -33 -93 -5 -30 24 -34 63 -9 91 9 10 14 21 10 24 -3 3 -12 -5 -20 -18z"/>
    <path d="M1888 1795 c-47 -44 -58 -64 -47 -93 10 -27 51 -48 72 -36 23 14 87 73 87 81 0 4 -12 -5 -27 -19 -16 -14 -40 -33 -56 -43 -26 -17 -28 -17 -47 0 -29 26 -25 39 27 84 28 25 43 45 37 51 -5 5 -24 -5 -46 -25z"/>
    <path d="M2971 1714 l-31 -26 47 -54 c44 -51 63 -65 63 -45 0 4 -18 29 -41 55 -43 48 -46 76 -9 76 26 0 37 -27 21 -51 -9 -16 -8 -19 6 -19 10 0 35 -3 56 -6 24 -5 37 -3 37 5 0 6 -12 11 -27 11 -37 0 -55 13 -47 33 7 19 -12 47 -31 47 -8 0 -27 -12 -44 -26z"/>
    <path d="M2027 1629 c-37 -22 -67 -42 -67 -45 0 -3 9 0 21 6 31 17 69 -11 69 -50 0 -54 17 -31 34 46 9 42 15 78 13 80 -1 2 -33 -15 -70 -37z m43 -6 c0 -10 -4 -24 -9 -31 -7 -12 -12 -12 -30 0 l-21 13 22 17 c29 22 38 22 38 1z"/>
    <path d="M2841 1568 c1 -29 5 -66 9 -83 l8 -30 1 27 c1 32 50 65 68 47 6 -6 18 -9 27 -7 12 2 1 15 -36 44 -81 62 -78 62 -77 2z m59 -16 c6 -4 -30 -32 -42 -32 -4 0 -8 16 -8 37 l0 36 23 -19 c12 -10 24 -20 27 -22z"/>
    <path d="M2180 1554 c-36 -82 -36 -90 1 -103 45 -16 60 -13 21 4 l-32 14 21 53 c12 29 23 59 26 66 3 6 0 12 -6 12 -7 0 -21 -21 -31 -46z"/>
    <path d="M2330 1553 c0 -5 -5 -37 -11 -72 -11 -73 -7 -81 49 -81 73 0 112 98 52 130 -17 9 -17 8 -4 -19 11 -22 12 -35 4 -57 -14 -35 -26 -44 -63 -44 -26 0 -28 3 -23 28 3 15 8 44 12 65 5 29 11 37 27 37 26 0 20 5 -15 14 -16 3 -28 3 -28 -1z"/>
    <path d="M2602 1529 c35 -26 45 -72 24 -104 -20 -30 -61 -33 -76 -6 -15 30 -12 82 7 103 9 10 11 18 5 18 -17 0 -52 -50 -52 -75 0 -36 37 -75 71 -75 40 0 79 40 79 80 0 35 -38 80 -67 80 -14 -1 -13 -5 9 -21z"/>
  </g>
</svg>